<svg width="437" height="100" viewBox="0 0 437 100" fill="none" xmlns="http://www.w3.org/2000/svg"><path d="M1e2 50c0 27.6127-22.3873 50-50 50C22.3873 1e2.0 77.6127.0 50 0 22.3873 22.3873.0 50 0c27.6185.0 50 22.3873 50 50z" fill="#2081e2"/><path d="M24.6671 51.68 24.8828 51.3409l13.007-20.3478C38.0799 30.6952 38.5268 30.726 38.6706 31.0496c2.173 4.8699 4.048 10.9265 3.1696 14.6971-.375 1.5514-1.4024 3.6524-2.5583 5.5942C39.133 51.6235 38.9686 51.9009 38.7939 52.168 38.7117 52.2913 38.573 52.3632 38.424 52.3632H25.0472C24.6876 52.3632 24.477 51.9728 24.6671 51.68z" fill="#fff"/><path d="M82.6444 55.461v3.2209C82.6444 58.8668 82.5314 59.0312 82.367 59.1031c-1.0068.4315-4.4538 2.0137-5.887 4.0069-3.6576 5.0908-6.4521 12.37-12.6988 12.37H37.721C28.4847 75.48 21 67.9697 21 58.7024V58.4045C21 58.1579 21.2003 57.9576 21.4469 57.9576H35.9745C36.2621 57.9576 36.4727 58.2247 36.4471 58.5072 36.3443 59.4524 36.519 60.4182 36.9659 61.2966c.863 1.7518 2.6507 2.846 4.5822 2.846H48.74V58.5278H41.6303C41.2656 58.5278 41.0499 58.1065 41.2605 57.8086 41.3375 57.6904 41.4249 57.5672 41.5173 57.4285 42.1903 56.473 43.1509 54.9884 44.1064 53.2983c.6524-1.1404 1.2842-2.3579 1.7928-3.5805C46.002 49.4969 46.0841 49.2708 46.1663 49.0499 46.305 48.6595 46.4489 48.2948 46.5516 47.9301 46.6544 47.6218 46.7365 47.2982 46.8187 46.9951 47.0602 45.9574 47.1629 44.8581 47.1629 43.7177 47.1629 43.2708 47.1424 42.8033 47.1013 42.3564 47.0807 41.8684 47.0191 41.3803 46.9574 40.8923 46.9163 40.4608 46.8393 40.0344 46.7571 39.5875 46.6544 38.9351 46.5105 38.2879 46.3461 37.6354L46.2896 37.3889C46.1663 36.9419 46.0636 36.5156 45.9198 36.0687 45.5139 34.6662 45.0465 33.2998 44.5533 32.0207 44.3735 31.5121 44.168 31.0241 43.9625 30.5361 43.6595 29.8015 43.3512 29.1337 43.0687 28.5018 42.9249 28.2141 42.8016 27.9521 42.6783 27.685 42.5396 27.3819 42.3958 27.0788 42.2519 26.7912 42.1492 26.5703 42.031 26.3648 41.9488 26.1593L41.0704 24.536C40.9471 24.3151 41.1526 24.0531 41.394 24.1199l5.4967 1.4897H46.9061C46.9163 25.6096 46.9215 25.6148 46.9266 25.6148L47.6509 25.8151 48.4472 26.0412 48.74 26.1233V22.8562C48.74 21.2791 50.0037 20 51.5654 20 52.3462 20 53.0551 20.3185 53.5637 20.8373 54.0722 21.3562 54.3907 22.0651 54.3907 22.8562v4.8494L54.9764 27.8699C55.0226 27.8854 55.0688 27.9059 55.1099 27.9367 55.2538 28.0446 55.4592 28.2038 55.7212 28.3991 55.9267 28.5634 56.1476 28.7638 56.4147 28.9693 56.9438 29.3956 57.5757 29.9453 58.2692 30.5772 58.4541 30.7364 58.6339 30.9008 58.7983 31.0652 59.6922 31.8974 60.6939 32.8734 61.6494 33.9522 61.9165 34.2553 62.1785 34.5635 62.4456 34.8871 62.7127 35.2159 62.9953 35.5395 63.2418 35.8632 63.5655 36.2947 63.9148 36.7416 64.2179 37.2091 64.3617 37.43 64.5261 37.656 64.6648 37.8769 65.0552 38.4676 65.3994 39.079 65.7282 39.6903 65.8669 39.9728 66.0107 40.281 66.134 40.5841 66.4987 41.4009 66.7864 42.2331 66.9713 43.0653 67.0278 43.2451 67.0689 43.4403 67.0895 43.615V43.6561C67.1511 43.9026 67.1717 44.1646 67.1922 44.4317 67.2744 45.2845 67.2333 46.1372 67.0484 46.9951 66.9713 47.3599 66.8686 47.704 66.7453 48.0688 66.622 48.4181 66.4987 48.7828 66.3395 49.127 66.0313 49.841 65.6665 50.5551 65.235 51.2229 65.0963 51.4695 64.9319 51.7315 64.7675 51.9781 64.5877 52.24 64.4028 52.4866 64.2384 52.7281 64.0124 53.0363 63.771 53.3599 63.5244 53.6476 63.3035 53.9507 63.0775 54.2538 62.8309 54.5209 62.4867 54.9267 62.1579 55.312 61.8137 55.6819 61.6083 55.9233 61.3874 56.1699 61.1613 56.3908 60.9405 56.6373 60.7144 56.8582 60.5089 57.0637 60.1648 57.4079 59.8771 57.675 59.6356 57.8959L59.0706 58.4148C58.9884 58.4867 58.8805 58.5278 58.7675 58.5278H54.3907v5.6148h5.5069C61.1305 64.1426 62.3018 63.7059 63.247 62.9045 63.5706 62.622 64.9833 61.3994 66.6528 59.5552 66.7093 59.4935 66.7813 59.4473 66.8635 59.4268l15.2107-4.3973C82.3568 54.9473 82.6444 55.163 82.6444 55.461z" fill="#fff"/><path d="M148.723 73.9966C144.203 73.9966 140.048 72.9837 136.259 70.9579 132.515 68.932 129.524 66.1135 127.287 62.5023 125.096 58.847 124 54.7513 124 50.2153 124 45.6792 125.096 41.6055 127.287 37.9943 129.524 34.3831 132.515 31.5645 136.259 29.5387 140.048 27.5129 144.203 26.5 148.723 26.5 153.243 26.5 157.375 27.5129 161.119 29.5387 164.909 31.5645 167.876 34.3831 170.022 37.9943 172.214 41.6055 173.309 45.6792 173.309 50.2153c0 4.536-1.095 8.6317-3.28700000000001 12.287C167.831 66.1135 164.863 68.932 161.119 70.9579 157.375 72.9837 153.243 73.9966 148.723 73.9966zm0-10.3053C152.558 63.6913 155.617 62.4582 157.9 59.992 160.229 57.5258 161.393 54.2669 161.393 50.2153 161.393 46.1196 160.229 42.8607 157.9 40.4385 155.617 37.9723 152.558 36.7392 148.723 36.7392 144.842 36.7392 141.738 37.9503 139.409 40.3724 137.126 42.7946 135.985 46.0755 135.985 50.2153 135.985 54.3109 137.126 57.5919 139.409 60.0581 141.738 62.4803 144.842 63.6913 148.723 63.6913z" fill="#fff"/><path d="M191.535 41.8917C192.676 40.1742 194.251 38.7869 196.26 37.73 198.269 36.673 200.62 36.1445 203.314 36.1445 206.464 36.1445 209.318 36.9152 211.875 38.4566 214.431 39.998 216.44 42.2 217.901 45.0625 219.408 47.9251 220.161 51.2501 220.161 55.0375S219.408 62.1719 217.901 65.0785C216.44 67.9411 214.431 70.165 211.875 71.7505 209.318 73.2919 206.464 74.0625 203.314 74.0625 200.666 74.0625 198.315 73.5341 196.26 72.4771 194.251 71.4202 192.676 70.055 191.535 68.3814V84.4999H179.824V36.673h11.711v5.2187zm16.71 13.1458C208.245 52.219 207.423 50.017 205.779 48.4316 204.181 46.8021 202.195 45.9874 199.821 45.9874 197.493 45.9874 195.507 46.8021 193.863 48.4316 192.265 50.061 191.466 52.285 191.466 55.1035 191.466 57.9221 192.265 60.1461 193.863 61.7755 195.507 63.405 197.493 64.2197 199.821 64.2197 202.15 64.2197 204.136 63.405 205.779 61.7755 207.423 60.102 208.245 57.856 208.245 55.0375z" fill="#fff"/><path d="M262.33 54.509C262.33 55.566 262.262 56.6669 262.125 57.812H235.621C235.804 60.102 236.557 61.8636 237.881 63.0967 239.251 64.2858 240.917 64.8803 242.881 64.8803c2.922.0 4.953-1.1891 6.095-3.56720000000001H261.44C260.801 63.7353 259.637 65.9152 257.947 67.853 256.304 69.7907 254.226 71.3101 251.715 72.4111 249.204 73.512 246.396 74.0625 243.292 74.0625c-3.744.0-7.077-.770600000000002-9.999-2.312S228.088 68.0071 226.444 65.1445C224.801 62.282 223.979 58.935 223.979 55.1035 223.979 51.2721 224.778 47.9251 226.376 45.0625 228.019 42.2 230.302 39.998 233.224 38.4566 236.146 36.9152 239.502 36.1445 243.292 36.1445 246.99 36.1445 250.277 36.8932 253.153 38.3906 256.03 39.8879 258.267 42.0238 259.865 44.7983 261.509 47.5728 262.33 50.8097 262.33 54.509zm-11.984-2.9727C250.346 49.5986 249.661 48.0572 248.291 46.9122 246.921 45.7672 245.209 45.1947 243.155 45.1947c-1.964.0-3.63.5505-5 1.6514C236.831 47.9471 236.009 49.5105 235.69 51.5363h14.656z" fill="#fff"/><path d="M291.793 36.2764C296.267 36.2764 299.828 37.6856 302.476 40.5042 305.17 43.2786 306.517 47.1101 306.517 51.9985V73.5338H294.874V53.5178C294.874 51.0516 294.212 49.1359 292.888 47.7707 291.564 46.4054 289.784 45.7228 287.547 45.7228 285.309 45.7228 283.529 46.4054 282.205 47.7707 280.881 49.1359 280.219 51.0516 280.219 53.5178v20.016H268.508V36.6727h11.711v4.8884C281.406 39.9316 283.004 38.6545 285.013 37.7297 287.021 36.7608 289.281 36.2764 291.793 36.2764z" fill="#fff"/><path d="M332.05 73.9966C328.535 73.9966 325.384 73.4461 322.599 72.3451 319.814 71.2441 317.577 69.6147 315.888 67.4567 314.244 65.2988 313.376 62.7005 313.285 59.6617h12.464C325.932 61.3793 326.548 62.7005 327.599 63.6253 328.649 64.5061 330.018 64.9465 331.708 64.9465 333.443 64.9465 334.812 64.5721 335.817 63.8235 336.821 63.0308 337.324 61.9518 337.324 60.5866c0-1.1451-.411000000000001-2.0919-1.233-2.8406C335.315 56.9973 334.333 56.3808 333.146 55.8964 332.004 55.4119 330.361 54.8614 328.215 54.2449 325.11 53.32 322.576 52.3952 320.613 51.4704 318.65 50.5456 316.961 49.1803 315.545 47.3747 314.13 45.5691 313.422 43.213 313.422 40.3064c0-4.3159 1.62099999999998-7.6849 4.863-10.1071C321.526 27.7331 325.749 26.5 330.954 26.5 336.251 26.5 340.519 27.7331 343.761 30.1993 347.003 32.6215 348.738 36.0125 348.966 40.3724h-12.67C336.205 38.8751 335.634 37.708 334.584 36.8713 333.534 35.9905 332.187 35.5501 330.543 35.5501 329.128 35.5501 327.987 35.9244 327.119 36.6731 326.252 37.3777 325.818 38.4127 325.818 39.7779 325.818 41.2752 326.548 42.4423 328.01 43.279 329.471 44.1158 331.753 45.0186 334.858 45.9875 337.963 47.0004 340.474 47.9692 342.391 48.8941 344.355 49.8189 346.044 51.1621 347.459 52.9237 348.875 54.6853 349.582 56.9533 349.582 59.7278 349.582 62.3702 348.875 64.7703 347.459 66.9282 346.09 69.0862 344.081 70.8037 341.433 72.0809 338.785 73.358 335.657 73.9966 332.05 73.9966z" fill="#fff"/><path d="M392.813 54.509C392.813 55.566 392.744 56.6669 392.607 57.812H366.103C366.286 60.102 367.039 61.8636 368.363 63.0967 369.733 64.2858 371.4 64.8803 373.363 64.8803 376.285 64.8803 378.317 63.6912 379.458 61.3131h12.464C391.283 63.7353 390.119 65.9152 388.43 67.853 386.786 69.7907 384.709 71.3101 382.197 72.4111 379.686 73.512 376.878 74.0625 373.774 74.0625 370.03 74.0625 366.697 73.2919 363.775 71.7505 360.853 70.2091 358.57 68.0071 356.926 65.1445 355.283 62.282 354.461 58.935 354.461 55.1035 354.461 51.2721 355.26 47.9251 356.858 45.0625 358.501 42.2 360.784 39.998 363.706 38.4566 366.628 36.9152 369.984 36.1445 373.774 36.1445 377.472 36.1445 380.759 36.8932 383.636 38.3906 386.512 39.8879 388.749 42.0238 390.347 44.7983 391.991 47.5728 392.813 50.8097 392.813 54.509zm-11.985-2.9727C380.828 49.5986 380.143 48.0572 378.773 46.9122 377.403 45.7672 375.691 45.1947 373.637 45.1947c-1.96300000000002.0-3.63.5505-5 1.6514C367.313 47.9471 366.491 49.5105 366.172 51.5363H380.828z" fill="#fff"/><path d="M396.662 55.0375C396.662 51.2501 397.393 47.9251 398.854 45.0625 400.36 42.2 402.392 39.998 404.949 38.4566 407.506 36.9152 410.359 36.1445 413.51 36.1445 416.203 36.1445 418.555 36.673 420.564 37.73 422.618 38.7869 424.193 40.1742 425.289 41.8917V36.673H437V73.5341H425.289V68.3154C424.148 70.0329 422.55 71.4202 420.495 72.4771 418.486 73.5341 416.135 74.0625 413.441 74.0625 410.336 74.0625 407.506 73.2919 404.949 71.7505 402.392 70.165 400.36 67.9411 398.854 65.0785 397.393 62.1719 396.662 58.8249 396.662 55.0375zM425.289 55.1035C425.289 52.285 424.467 50.061 422.824 48.4316 421.226 46.8021 419.262 45.9874 416.934 45.9874 414.605 45.9874 412.619 46.8021 410.976 48.4316 409.378 50.017 408.579 52.219 408.579 55.0375S409.378 60.102 410.976 61.7755C412.619 63.405 414.605 64.2197 416.934 64.2197 419.262 64.2197 421.226 63.405 422.824 61.7755 424.467 60.1461 425.289 57.9221 425.289 55.1035z" fill="#fff"/></svg>